<svg width="3424" height="608" viewBox="0 0 3424 608" fill="none" xmlns="http://www.w3.org/2000/svg">
<rect width="3424" height="608" fill="#171717"/>
<rect x="128" y="128" width="64" height="64" fill="#D9D9D9"/>
<rect x="272" y="128" width="64" height="64" fill="#D9D9D9"/>
<rect x="344" y="128" width="64" height="64" fill="#D9D9D9"/>
<rect x="200" y="128" width="64" height="64" fill="#D9D9D9"/>
<rect x="128" y="344" width="64" height="64" fill="#D9D9D9"/>
<rect x="128" y="416" width="64" height="64" fill="#D9D9D9"/>
<rect x="200" y="416" width="64" height="64" fill="#D9D9D9"/>
<rect x="272" y="416" width="64" height="64" fill="#D9D9D9"/>
<rect x="344" y="416" width="64" height="64" fill="#D9D9D9"/>
<rect x="128" y="272" width="64" height="64" fill="#D9D9D9"/>
<rect x="128" y="200" width="64" height="64" fill="#D9D9D9"/>
<rect x="472" y="200" width="64" height="64" fill="#D9D9D9"/>
<rect x="472" y="128" width="64" height="64" fill="#D9D9D9"/>
<rect x="688" y="272" width="64" height="64" fill="#D9D9D9"/>
<rect x="688" y="200" width="64" height="64" fill="#D9D9D9"/>
<rect x="688" y="128" width="64" height="64" fill="#D9D9D9"/>
<rect x="688" y="344" width="64" height="64" fill="#D9D9D9"/>
<rect x="472" y="344" width="64" height="64" fill="#D9D9D9"/>
<rect x="472" y="416" width="64" height="64" fill="#D9D9D9"/>
<rect x="544" y="272" width="64" height="64" fill="#D9D9D9"/>
<rect x="616" y="272" width="64" height="64" fill="#D9D9D9"/>
<rect x="688" y="416" width="64" height="64" fill="#D9D9D9"/>
<rect x="472" y="272" width="64" height="64" fill="#D9D9D9"/>
<rect x="816" y="200" width="64" height="64" fill="#D9D9D9"/>
<rect x="816" y="128" width="64" height="64" fill="#D9D9D9"/>
<rect x="1032" y="272" width="64" height="64" fill="#D9D9D9"/>
<rect x="1032" y="200" width="64" height="64" fill="#D9D9D9"/>
<rect x="1032" y="128" width="64" height="64" fill="#D9D9D9"/>
<rect x="1032" y="344" width="64" height="64" fill="#D9D9D9"/>
<rect x="816" y="344" width="64" height="64" fill="#D9D9D9"/>
<rect x="816" y="416" width="64" height="64" fill="#D9D9D9"/>
<rect x="888" y="416" width="64" height="64" fill="#D9D9D9"/>
<rect x="960" y="416" width="64" height="64" fill="#D9D9D9"/>
<rect x="1032" y="416" width="64" height="64" fill="#D9D9D9"/>
<rect x="816" y="272" width="64" height="64" fill="#D9D9D9"/>
<rect x="1160" y="128" width="64" height="64" fill="#D9D9D9"/>
<rect x="1376" y="272" width="64" height="64" fill="#D9D9D9"/>
<rect x="1376" y="200" width="64" height="64" fill="#D9D9D9"/>
<rect x="1376" y="128" width="64" height="64" fill="#D9D9D9"/>
<rect x="1376" y="344" width="64" height="64" fill="#D9D9D9"/>
<rect x="1160" y="344" width="64" height="64" fill="#D9D9D9"/>
<rect x="1160" y="416" width="64" height="64" fill="#D9D9D9"/>
<rect x="1232" y="200" width="64" height="64" fill="#D9D9D9"/>
<rect x="1304" y="272" width="64" height="64" fill="#D9D9D9"/>
<rect x="1376" y="416" width="64" height="64" fill="#D9D9D9"/>
<rect x="1160" y="272" width="64" height="64" fill="#D9D9D9"/>
<rect x="1160" y="200" width="64" height="64" fill="#D9D9D9"/>
<rect x="1504" y="200" width="64" height="64" fill="#D9D9D9"/>
<rect x="1504" y="128" width="64" height="64" fill="#D9D9D9"/>
<rect x="1576" y="272" width="64" height="64" fill="#D9D9D9"/>
<rect x="1504" y="344" width="64" height="64" fill="#D9D9D9"/>
<rect x="1504" y="416" width="64" height="64" fill="#D9D9D9"/>
<rect x="1720" y="128" width="64" height="64" fill="#D9D9D9"/>
<rect x="1648" y="344" width="64" height="64" fill="#D9D9D9"/>
<rect x="1720" y="416" width="64" height="64" fill="#D9D9D9"/>
<rect x="1504" y="272" width="64" height="64" fill="#D9D9D9"/>
<rect x="1648" y="200" width="64" height="64" fill="#D9D9D9"/>
<rect x="1912" y="480" width="64" height="64" transform="rotate(-90 1912 480)" fill="#D9D9D9"/>
<rect x="1912" y="336" width="64" height="64" transform="rotate(-90 1912 336)" fill="#D9D9D9"/>
<rect x="1912" y="264" width="64" height="64" transform="rotate(-90 1912 264)" fill="#D9D9D9"/>
<rect x="1912" y="192" width="64" height="64" transform="rotate(-90 1912 192)" fill="#D9D9D9"/>
<rect x="1912" y="408" width="64" height="64" transform="rotate(-90 1912 408)" fill="#D9D9D9"/>
<rect x="2200" y="264" width="64" height="64" transform="rotate(-90 2200 264)" fill="#D9D9D9"/>
<rect x="2200" y="192" width="64" height="64" transform="rotate(-90 2200 192)" fill="#D9D9D9"/>
<rect x="2056" y="480" width="64" height="64" transform="rotate(-90 2056 480)" fill="#D9D9D9"/>
<path d="M2056 408L2056 344L2120 344L2120 408L2056 408Z" fill="#D9D9D9"/>
<rect x="2128" y="480" width="64" height="64" transform="rotate(-90 2128 480)" fill="#D9D9D9"/>
<rect x="2200" y="480" width="64" height="64" transform="rotate(-90 2200 480)" fill="#D9D9D9"/>
<rect x="2200" y="408" width="64" height="64" transform="rotate(-90 2200 408)" fill="#D9D9D9"/>
<rect x="2200" y="336" width="64" height="64" transform="rotate(-90 2200 336)" fill="#D9D9D9"/>
<rect x="1984" y="480" width="64" height="64" transform="rotate(-90 1984 480)" fill="#D9D9D9"/>
<rect x="2328" y="480" width="64" height="64" transform="rotate(-90 2328 480)" fill="#D9D9D9"/>
<rect x="2328" y="336" width="64" height="64" transform="rotate(-90 2328 336)" fill="#D9D9D9"/>
<rect x="2328" y="264" width="64" height="64" transform="rotate(-90 2328 264)" fill="#D9D9D9"/>
<rect x="2328" y="192" width="64" height="64" transform="rotate(-90 2328 192)" fill="#D9D9D9"/>
<rect x="2328" y="408" width="64" height="64" transform="rotate(-90 2328 408)" fill="#D9D9D9"/>
<rect x="2544" y="480" width="64" height="64" transform="rotate(-90 2544 480)" fill="#D9D9D9"/>
<path d="M2544 408L2544 344L2608 344L2608 408L2544 408Z" fill="#D9D9D9"/>
<rect x="2544" y="336" width="64" height="64" transform="rotate(-90 2544 336)" fill="#D9D9D9"/>
<rect x="2544" y="264" width="64" height="64" transform="rotate(-90 2544 264)" fill="#D9D9D9"/>
<rect x="2472" y="192" width="64" height="64" transform="rotate(-90 2472 192)" fill="#D9D9D9"/>
<rect x="2544" y="192" width="64" height="64" transform="rotate(-90 2544 192)" fill="#D9D9D9"/>
<rect x="2400" y="336" width="64" height="64" transform="rotate(-90 2400 336)" fill="#D9D9D9"/>
<rect x="2472" y="336" width="64" height="64" transform="rotate(-90 2472 336)" fill="#D9D9D9"/>
<rect x="2400" y="192" width="64" height="64" transform="rotate(-90 2400 192)" fill="#D9D9D9"/>
<rect x="2672" y="480" width="64" height="64" transform="rotate(-90 2672 480)" fill="#D9D9D9"/>
<rect x="2672" y="336" width="64" height="64" transform="rotate(-90 2672 336)" fill="#D9D9D9"/>
<rect x="2672" y="264" width="64" height="64" transform="rotate(-90 2672 264)" fill="#D9D9D9"/>
<rect x="2672" y="192" width="64" height="64" transform="rotate(-90 2672 192)" fill="#D9D9D9"/>
<rect x="2672" y="408" width="64" height="64" transform="rotate(-90 2672 408)" fill="#D9D9D9"/>
<rect x="2888" y="480" width="64" height="64" transform="rotate(-90 2888 480)" fill="#D9D9D9"/>
<path d="M2888 408L2888 344L2952 344L2952 408L2888 408Z" fill="#D9D9D9"/>
<rect x="2888" y="264" width="64" height="64" transform="rotate(-90 2888 264)" fill="#D9D9D9"/>
<path d="M2896 192C2891.58 192 2888 188.418 2888 184L2888 136C2888 131.582 2891.58 128 2896 128L2920 128C2937.67 128 2952 142.327 2952 160L2952 184C2952 188.418 2948.42 192 2944 192L2896 192Z" fill="#48A0F3"/>
<rect x="2744" y="336" width="64" height="64" transform="rotate(-90 2744 336)" fill="#D9D9D9"/>
<rect x="2816" y="336" width="64" height="64" transform="rotate(-90 2816 336)" fill="#D9D9D9"/>
<rect x="2744" y="192" width="64" height="64" transform="rotate(-90 2744 192)" fill="#D9D9D9"/>
<rect x="2816" y="192" width="64" height="64" transform="rotate(-90 2816 192)" fill="#D9D9D9"/>
<rect x="3016" y="480" width="64" height="64" transform="rotate(-90 3016 480)" fill="#D9D9D9"/>
<rect x="3016" y="336" width="64" height="64" transform="rotate(-90 3016 336)" fill="#D9D9D9"/>
<rect x="3016" y="264" width="64" height="64" transform="rotate(-90 3016 264)" fill="#D9D9D9"/>
<rect x="3016" y="192" width="64" height="64" transform="rotate(-90 3016 192)" fill="#D9D9D9"/>
<rect x="3016" y="408" width="64" height="64" transform="rotate(-90 3016 408)" fill="#D9D9D9"/>
<path d="M3160 480L3160 416L3224 416L3224 480L3160 480Z" fill="#D9D9D9"/>
<rect x="3160" y="192" width="64" height="64" transform="rotate(-90 3160 192)" fill="#D9D9D9"/>
<path d="M3232 480L3232 416L3296 416L3296 480L3232 480Z" fill="#D9D9D9"/>
<rect x="3232" y="192" width="64" height="64" transform="rotate(-90 3232 192)" fill="#D9D9D9"/>
<rect x="3088" y="480" width="64" height="64" transform="rotate(-90 3088 480)" fill="#D9D9D9"/>
<rect x="3088" y="336" width="64" height="64" transform="rotate(-90 3088 336)" fill="#D9D9D9"/>
<rect x="3160" y="336" width="64" height="64" transform="rotate(-90 3160 336)" fill="#D9D9D9"/>
<rect x="3088" y="192" width="64" height="64" transform="rotate(-90 3088 192)" fill="#D9D9D9"/>
</svg>
